<?xml version="1.0" standalone="yes"?>

<svg version="1.1" viewBox="0.0 0.0 800.0 600.0" fill="none" stroke="none" stroke-linecap="square" stroke-miterlimit="10" xmlns="http://www.w3.org/2000/svg" xmlns:xlink="http://www.w3.org/1999/xlink"><clipPath id="p.0"><path d="m0 0l800.0 0l0 600.0l-800.0 0l0 -600.0z" clip-rule="nonzero"></path></clipPath><g clip-path="url(#p.0)"><path fill="#000000" fill-opacity="0.0" d="m0 0l800.0 0l0 600.0l-800.0 0z" fill-rule="nonzero"></path><path fill="#ffffff" d="m132.0 300.0l0 0c0 -22.36972 30.670258 -40.503937 68.50394 -40.503937l0 0c37.83368 0 68.50394 18.134216 68.50394 40.503937l0 0c0 22.36972 -30.670258 40.503937 -68.50394 40.503937l0 0c-37.83368 0 -68.50394 -18.134216 -68.50394 -40.503937z" fill-rule="nonzero"></path><path stroke="#000000" stroke-width="2.0" stroke-linejoin="round" stroke-linecap="butt" d="m132.0 300.0l0 0c0 -22.36972 30.670258 -40.503937 68.50394 -40.503937l0 0c37.83368 0 68.50394 18.134216 68.50394 40.503937l0 0c0 22.36972 -30.670258 40.503937 -68.50394 40.503937l0 0c-37.83368 0 -68.50394 -18.134216 -68.50394 -40.503937z" fill-rule="nonzero"></path><path fill="#000000" d="m177.74496 292.6856q-0.34375 1.6875 -1.34375 2.59375q-1.0 0.90625 -2.21875 0.90625q-1.453125 0 -2.53125 -1.21875q-1.0625 -1.21875 -1.0625 -3.28125q0 -2.015625 1.1875 -3.265625q1.1875 -1.25 2.859375 -1.25q1.25 0 2.0625 0.671875q0.8125 0.65625 0.8125 1.375q0 0.34375 -0.234375 0.5625q-0.234375 0.21875 -0.640625 0.21875q-0.546875 0 -0.828125 -0.34375q-0.15625 -0.203125 -0.203125 -0.75q-0.046875 -0.546875 -0.375 -0.828125q-0.328125 -0.28125 -0.90625 -0.28125q-0.921875 0 -1.484375 0.6875q-0.75 0.90625 -0.75 2.40625q0 1.515625 0.734375 2.6875q0.75 1.15625 2.03125 1.15625q0.90625 0 1.625 -0.625q0.515625 -0.421875 1.0 -1.546875l0.265625 0.125zm3.9836578 -9.953125l0 11.265625q0 0.796875 0.109375 1.0625q0.125 0.25 0.359375 0.390625q0.25 0.140625 0.90625 0.140625l0 0.328125l-4.171875 0l0 -0.328125q0.59375 0 0.796875 -0.125q0.21875 -0.125 0.328125 -0.390625q0.125 -0.28125 0.125 -1.078125l0 -7.71875q0 -1.4375 -0.0625 -1.765625q-0.0625 -0.328125 -0.203125 -0.453125q-0.140625 -0.125 -0.359375 -0.125q-0.25 0 -0.625 0.15625l-0.15625 -0.328125l2.53125 -1.03125l0.421875 0zm6.417679 4.4375q1.9375 0 3.09375 1.46875q1.0 1.25 1.0 2.875q0 1.140625 -0.546875 2.3125q-0.546875 1.171875 -1.515625 1.765625q-0.953125 0.59375 -2.140625 0.59375q-1.90625 0 -3.046875 -1.53125q-0.953125 -1.296875 -0.953125 -2.90625q0 -1.15625 0.578125 -2.3125q0.578125 -1.15625 1.515625 -1.703125q0.953125 -0.5625 2.015625 -0.5625zm-0.28125 0.609375q-0.5 0 -1.0 0.296875q-0.484375 0.28125 -0.796875 1.015625q-0.3125 0.734375 -0.3125 1.890625q0 1.84375 0.734375 3.1875q0.75 1.34375 1.953125 1.34375q0.90625 0 1.484375 -0.734375q0.578125 -0.75 0.578125 -2.546875q0 -2.265625 -0.96875 -3.5625q-0.65625 -0.890625 -1.671875 -0.890625zm7.921875 -3.15625l0 2.796875l1.984375 0l0 0.65625l-1.984375 0l0 5.5q0 0.828125 0.234375 1.125q0.234375 0.28125 0.609375 0.28125q0.3125 0 0.59375 -0.1875q0.28125 -0.1875 0.4375 -0.5625l0.375 0q-0.328125 0.90625 -0.921875 1.375q-0.59375 0.453125 -1.234375 0.453125q-0.421875 0 -0.828125 -0.234375q-0.40625 -0.234375 -0.609375 -0.671875q-0.1875 -0.453125 -0.1875 -1.375l0 -5.703125l-1.34375 0l0 -0.3125q0.515625 -0.203125 1.046875 -0.6875q0.53125 -0.484375 0.953125 -1.15625q0.203125 -0.359375 0.59375 -1.296875l0.28125 0zm5.214554 -1.890625l0 6.203125q1.03125 -1.125 1.625 -1.4375q0.609375 -0.328125 1.203125 -0.328125q0.734375 0 1.25 0.40625q0.515625 0.390625 0.765625 1.25q0.1875 0.59375 0.1875 2.171875l0 3.0q0 0.8125 0.125 1.109375q0.09375 0.21875 0.3125 0.359375q0.21875 0.125 0.8125 0.125l0 0.328125l-4.171875 0l0 -0.328125l0.203125 0q0.59375 0 0.8125 -0.1875q0.234375 -0.1875 0.328125 -0.53125q0.03125 -0.15625 0.03125 -0.875l0 -3.0q0 -1.390625 -0.140625 -1.828125q-0.140625 -0.4375 -0.46875 -0.65625q-0.3125 -0.21875 -0.75 -0.21875q-0.453125 0 -0.953125 0.25q-0.484375 0.234375 -1.171875 0.96875l0 4.484375q0 0.875 0.09375 1.09375q0.09375 0.203125 0.359375 0.359375q0.265625 0.140625 0.921875 0.140625l0 0.328125l-4.21875 0l0 -0.328125q0.5625 0 0.890625 -0.1875q0.1875 -0.09375 0.296875 -0.34375q0.109375 -0.265625 0.109375 -1.0625l0 -7.6875q0 -1.453125 -0.078125 -1.78125q-0.0625 -0.34375 -0.203125 -0.46875q-0.140625 -0.125 -0.390625 -0.125q-0.1875 0 -0.625 0.15625l-0.125 -0.328125l2.53125 -1.03125l0.4375 0zm8.984375 0q0.390625 0 0.65625 0.28125q0.28125 0.265625 0.28125 0.65625q0 0.390625 -0.28125 0.671875q-0.265625 0.265625 -0.65625 0.265625q-0.390625 0 -0.671875 -0.265625q-0.265625 -0.28125 -0.265625 -0.671875q0 -0.390625 0.265625 -0.65625q0.28125 -0.28125 0.671875 -0.28125zm0.78125 4.4375l0 6.828125q0 0.796875 0.109375 1.0625q0.109375 0.265625 0.34375 0.40625q0.234375 0.125 0.828125 0.125l0 0.328125l-4.125 0l0 -0.328125q0.625 0 0.828125 -0.125q0.21875 -0.125 0.34375 -0.390625q0.125 -0.28125 0.125 -1.078125l0 -3.28125q0 -1.375 -0.078125 -1.78125q-0.0625 -0.296875 -0.203125 -0.40625q-0.140625 -0.125 -0.390625 -0.125q-0.25 0 -0.625 0.140625l-0.125 -0.328125l2.5625 -1.046875l0.40625 0zm4.730179 1.796875q1.484375 -1.796875 2.84375 -1.796875q0.6875 0 1.1875 0.359375q0.5 0.34375 0.796875 1.140625q0.21875 0.546875 0.21875 1.703125l0 3.625q0 0.8125 0.125 1.09375q0.09375 0.234375 0.3125 0.375q0.234375 0.125 0.859375 0.125l0 0.328125l-4.203125 0l0 -0.328125l0.171875 0q0.59375 0 0.828125 -0.1875q0.234375 -0.1875 0.328125 -0.53125q0.046875 -0.140625 0.046875 -0.875l0 -3.484375q0 -1.15625 -0.3125 -1.671875q-0.296875 -0.53125 -1.015625 -0.53125q-1.09375 0 -2.1875 1.203125l0 4.484375q0 0.859375 0.09375 1.0625q0.125 0.28125 0.34375 0.40625q0.234375 0.125 0.9375 0.125l0 0.328125l-4.203125 0l0 -0.328125l0.1875 0q0.640625 0 0.875 -0.328125q0.234375 -0.34375 0.234375 -1.265625l0 -3.15625q0 -1.53125 -0.078125 -1.859375q-0.0625 -0.34375 -0.21875 -0.453125q-0.140625 -0.125 -0.375 -0.125q-0.265625 0 -0.625 0.140625l-0.140625 -0.328125l2.5625 -1.046875l0.40625 0l0 1.796875zm9.109375 3.859375q-0.765625 -0.390625 -1.1875 -1.0625q-0.421875 -0.6875 -0.421875 -1.515625q0 -1.265625 0.953125 -2.171875q0.953125 -0.90625 2.4375 -0.90625q1.21875 0 2.109375 0.59375l1.796875 0q0.390625 0 0.453125 0.03125q0.078125 0.015625 0.09375 0.078125q0.0625 0.078125 0.0625 0.296875q0 0.234375 -0.046875 0.328125q-0.03125 0.046875 -0.109375 0.078125q-0.0625 0.03125 -0.453125 0.03125l-1.109375 0q0.515625 0.65625 0.515625 1.703125q0 1.1875 -0.90625 2.03125q-0.90625 0.84375 -2.4375 0.84375q-0.625 0 -1.28125 -0.1875q-0.421875 0.359375 -0.5625 0.625q-0.140625 0.25 -0.140625 0.4375q0 0.15625 0.15625 0.3125q0.15625 0.140625 0.59375 0.203125q0.265625 0.046875 1.296875 0.078125q1.921875 0.046875 2.484375 0.125q0.859375 0.125 1.375 0.640625q0.515625 0.515625 0.515625 1.28125q0 1.046875 -0.984375 1.96875q-1.453125 1.34375 -3.78125 1.34375q-1.78125 0 -3.015625 -0.796875q-0.703125 -0.46875 -0.703125 -0.96875q0 -0.21875 0.109375 -0.4375q0.15625 -0.34375 0.640625 -0.96875q0.0625 -0.078125 0.953125 -1.0q-0.484375 -0.28125 -0.6875 -0.5q-0.203125 -0.234375 -0.203125 -0.53125q0 -0.3125 0.265625 -0.75q0.265625 -0.4375 1.21875 -1.234375zm1.625 -5.203125q-0.6875 0 -1.15625 0.546875q-0.46875 0.546875 -0.46875 1.671875q0 1.46875 0.640625 2.28125q0.484375 0.609375 1.21875 0.609375q0.703125 0 1.15625 -0.53125q0.46875 -0.53125 0.46875 -1.65625q0 -1.484375 -0.640625 -2.3125q-0.484375 -0.609375 -1.21875 -0.609375zm-1.703125 8.296875q-0.4375 0.46875 -0.671875 0.875q-0.21875 0.421875 -0.21875 0.765625q0 0.4375 0.546875 0.765625q0.921875 0.578125 2.671875 0.578125q1.671875 0 2.46875 -0.59375q0.796875 -0.578125 0.796875 -1.25q0 -0.484375 -0.484375 -0.6875q-0.484375 -0.203125 -1.90625 -0.234375q-2.09375 -0.0625 -3.203125 -0.21875z" fill-rule="nonzero"></path><path fill="#000000" d="m186.67465 304.7325q0.390625 0 0.65625 0.28125q0.28125 0.265625 0.28125 0.65625q0 0.390625 -0.28125 0.671875q-0.265625 0.265625 -0.65625 0.265625q-0.390625 0 -0.671875 -0.265625q-0.265625 -0.28125 -0.265625 -0.671875q0 -0.390625 0.265625 -0.65625q0.28125 -0.28125 0.671875 -0.28125zm0.78125 4.4375l0 6.828125q0 0.796875 0.109375 1.0625q0.109375 0.265625 0.34375 0.40625q0.234375 0.125 0.828125 0.125l0 0.328125l-4.125 0l0 -0.328125q0.625 0 0.828125 -0.125q0.21875 -0.125 0.34375 -0.390625q0.125 -0.28125 0.125 -1.078125l0 -3.28125q0 -1.375 -0.078125 -1.78125q-0.0625 -0.296875 -0.203125 -0.40625q-0.140625 -0.125 -0.390625 -0.125q-0.25 0 -0.625 0.140625l-0.125 -0.328125l2.5625 -1.046875l0.40625 0zm4.714554 -2.546875l0 2.796875l1.984375 0l0 0.65625l-1.984375 0l0 5.5q0 0.828125 0.234375 1.125q0.234375 0.28125 0.609375 0.28125q0.3125 0 0.59375 -0.1875q0.28125 -0.1875 0.4375 -0.5625l0.375 0q-0.328125 0.90625 -0.921875 1.375q-0.59375 0.453125 -1.234375 0.453125q-0.421875 0 -0.828125 -0.234375q-0.40625 -0.234375 -0.609375 -0.671875q-0.1875 -0.453125 -0.1875 -1.375l0 -5.703125l-1.34375 0l0 -0.3125q0.515625 -0.203125 1.046875 -0.6875q0.53125 -0.484375 0.953125 -1.15625q0.203125 -0.359375 0.59375 -1.296875l0.28125 0zm4.136429 6.0q0 1.890625 0.921875 2.96875q0.9375 1.078125 2.1875 1.078125q0.828125 0 1.4375 -0.453125q0.625 -0.46875 1.046875 -1.578125l0.28125 0.1875q-0.1875 1.265625 -1.125 2.3125q-0.9375 1.046875 -2.34375 1.046875q-1.53125 0 -2.625 -1.1875q-1.09375 -1.203125 -1.09375 -3.21875q0 -2.171875 1.109375 -3.390625q1.125 -1.234375 2.8125 -1.234375q1.4375 0 2.34375 0.953125q0.921875 0.9375 0.921875 2.515625l-5.875 0zm0 -0.53125l3.9375 0q-0.046875 -0.828125 -0.1875 -1.15625q-0.234375 -0.515625 -0.703125 -0.8125q-0.453125 -0.296875 -0.953125 -0.296875q-0.765625 0 -1.375 0.59375q-0.609375 0.59375 -0.71875 1.671875zm9.389908 -1.109375q0.921875 -0.9375 1.09375 -1.0625q0.40625 -0.359375 0.890625 -0.546875q0.484375 -0.203125 0.953125 -0.203125q0.796875 0 1.375 0.46875q0.578125 0.453125 0.765625 1.34375q0.96875 -1.109375 1.625 -1.453125q0.65625 -0.359375 1.34375 -0.359375q0.6875 0 1.203125 0.359375q0.53125 0.34375 0.84375 1.125q0.203125 0.546875 0.203125 1.6875l0 3.65625q0 0.796875 0.109375 1.09375q0.09375 0.203125 0.34375 0.359375q0.25 0.140625 0.828125 0.140625l0 0.328125l-4.203125 0l0 -0.328125l0.171875 0q0.546875 0 0.859375 -0.21875q0.21875 -0.15625 0.3125 -0.46875q0.03125 -0.15625 0.03125 -0.90625l0 -3.65625q0 -1.03125 -0.25 -1.46875q-0.359375 -0.59375 -1.15625 -0.59375q-0.5 0 -1.0 0.25q-0.484375 0.25 -1.1875 0.921875l-0.03125 0.09375l0.03125 0.40625l0 4.046875q0 0.875 0.09375 1.09375q0.09375 0.203125 0.359375 0.359375q0.28125 0.140625 0.921875 0.140625l0 0.328125l-4.296875 0l0 -0.328125q0.703125 0 0.96875 -0.171875q0.265625 -0.171875 0.375 -0.5q0.046875 -0.15625 0.046875 -0.921875l0 -3.65625q0 -1.03125 -0.3125 -1.484375q-0.40625 -0.59375 -1.140625 -0.59375q-0.5 0 -0.984375 0.265625q-0.78125 0.40625 -1.1875 0.921875l0 4.546875q0 0.84375 0.109375 1.09375q0.109375 0.25 0.328125 0.375q0.234375 0.125 0.9375 0.125l0 0.328125l-4.203125 0l0 -0.328125q0.578125 0 0.8125 -0.125q0.234375 -0.125 0.359375 -0.390625q0.125 -0.28125 0.125 -1.078125l0 -3.25q0 -1.390625 -0.09375 -1.8125q-0.0625 -0.296875 -0.203125 -0.40625q-0.140625 -0.125 -0.375 -0.125q-0.265625 0 -0.625 0.140625l-0.140625 -0.328125l2.5625 -1.046875l0.40625 0l0 1.8125z" fill-rule="nonzero"></path><path fill="#ffffff" d="m542.0 300.0l0 0c0 -22.36972 30.670227 -40.503937 68.50397 -40.503937l0 0c37.83368 0 68.50391 18.134216 68.50391 40.503937l0 0c0 22.36972 -30.670227 40.503937 -68.50391 40.503937l0 0c-37.83374 0 -68.50397 -18.134216 -68.50397 -40.503937z" fill-rule="nonzero"></path><path stroke="#000000" stroke-width="2.0" stroke-linejoin="round" stroke-linecap="butt" d="m542.0 300.0l0 0c0 -22.36972 30.670227 -40.503937 68.50397 -40.503937l0 0c37.83368 0 68.50391 18.134216 68.50391 40.503937l0 0c0 22.36972 -30.670227 40.503937 -68.50391 40.503937l0 0c-37.83374 0 -68.50397 -18.134216 -68.50397 -40.503937z" fill-rule="nonzero"></path><path fill="#000000" d="m590.4599 298.42l4.0 0l0 0.34375l-0.265625 0q-0.359375 0 -0.546875 0.1875q-0.1875 0.171875 -0.1875 0.46875q0 0.3125 0.1875 0.765625l1.984375 4.6875l1.984375 -4.859375q0.21875 -0.53125 0.21875 -0.796875q0 -0.125 -0.078125 -0.203125q-0.109375 -0.140625 -0.265625 -0.1875q-0.15625 -0.0625 -0.640625 -0.0625l0 -0.34375l2.78125 0l0 0.34375q-0.484375 0.03125 -0.671875 0.203125q-0.328125 0.265625 -0.578125 0.921875l-3.015625 7.296875l-0.390625 0l-3.03125 -7.171875q-0.203125 -0.5 -0.390625 -0.71875q-0.1875 -0.21875 -0.46875 -0.375q-0.15625 -0.078125 -0.625 -0.15625l0 -0.34375zm14.578125 7.28125q-1.3125 1.0 -1.640625 1.15625q-0.5 0.234375 -1.0625 0.234375q-0.890625 0 -1.46875 -0.59375q-0.5625 -0.609375 -0.5625 -1.59375q0 -0.625 0.28125 -1.078125q0.390625 -0.625 1.328125 -1.171875q0.9375 -0.5625 3.125 -1.359375l0 -0.34375q0 -1.265625 -0.40625 -1.734375q-0.390625 -0.484375 -1.171875 -0.484375q-0.578125 0 -0.921875 0.3125q-0.359375 0.328125 -0.359375 0.734375l0.015625 0.53125q0 0.4375 -0.21875 0.671875q-0.203125 0.21875 -0.5625 0.21875q-0.34375 0 -0.5625 -0.234375q-0.21875 -0.25 -0.21875 -0.65625q0 -0.796875 0.8125 -1.46875q0.828125 -0.671875 2.296875 -0.671875q1.125 0 1.859375 0.375q0.546875 0.296875 0.796875 0.90625q0.171875 0.40625 0.171875 1.640625l0 2.875q0 1.21875 0.046875 1.5q0.046875 0.265625 0.15625 0.359375q0.109375 0.09375 0.25 0.09375q0.140625 0 0.25 -0.0625q0.203125 -0.125 0.75 -0.6875l0 0.53125q-1.03125 1.390625 -1.984375 1.390625q-0.453125 0 -0.71875 -0.3125q-0.265625 -0.328125 -0.28125 -1.078125zm0 -0.609375l0 -3.234375q-1.390625 0.546875 -1.8125 0.78125q-0.734375 0.40625 -1.046875 0.859375q-0.3125 0.4375 -0.3125 0.96875q0 0.671875 0.390625 1.109375q0.40625 0.4375 0.921875 0.4375q0.71875 0 1.859375 -0.921875zm6.3898926 -11.359375l0 11.265625q0 0.796875 0.109375 1.0625q0.125 0.25 0.359375 0.390625q0.25 0.140625 0.90625 0.140625l0 0.328125l-4.171875 0l0 -0.328125q0.59375 0 0.796875 -0.125q0.21875 -0.125 0.328125 -0.390625q0.125 -0.28125 0.125 -1.078125l0 -7.71875q0 -1.4375 -0.0625 -1.765625q-0.0625 -0.328125 -0.203125 -0.453125q-0.140625 -0.125 -0.359375 -0.125q-0.25 0 -0.625 0.15625l-0.15625 -0.328125l2.53125 -1.03125l0.421875 0zm9.714539 4.6875l0 5.15625q0 1.46875 0.0625 1.796875q0.078125 0.328125 0.21875 0.46875q0.15625 0.125 0.359375 0.125q0.296875 0 0.65625 -0.15625l0.125 0.328125l-2.53125 1.046875l-0.421875 0l0 -1.8125q-1.09375 1.1875 -1.671875 1.5q-0.578125 0.3125 -1.21875 0.3125q-0.71875 0 -1.25 -0.40625q-0.515625 -0.421875 -0.71875 -1.0625q-0.203125 -0.65625 -0.203125 -1.84375l0 -3.796875q0 -0.609375 -0.125 -0.828125q-0.125 -0.234375 -0.390625 -0.359375q-0.25 -0.140625 -0.921875 -0.125l0 -0.34375l2.984375 0l0 5.6875q0 1.1875 0.40625 1.5625q0.421875 0.375 1.0 0.375q0.40625 0 0.90625 -0.25q0.5 -0.25 1.203125 -0.96875l0 -4.8125q0 -0.71875 -0.265625 -0.96875q-0.265625 -0.265625 -1.09375 -0.28125l0 -0.34375l2.890625 0zm3.296875 3.203125q0 1.890625 0.921875 2.96875q0.9375 1.078125 2.1875 1.078125q0.828125 0 1.4375 -0.453125q0.625 -0.46875 1.046875 -1.578125l0.28125 0.1875q-0.1875 1.265625 -1.125 2.3125q-0.9375 1.046875 -2.34375 1.046875q-1.53125 0 -2.625 -1.1875q-1.09375 -1.203125 -1.09375 -3.21875q0 -2.171875 1.109375 -3.390625q1.125 -1.234375 2.8125 -1.234375q1.4375 0 2.34375 0.953125q0.921875 0.9375 0.921875 2.515625l-5.875 0zm0 -0.53125l3.9375 0q-0.046875 -0.828125 -0.1875 -1.15625q-0.234375 -0.515625 -0.703125 -0.8125q-0.453125 -0.296875 -0.953125 -0.296875q-0.765625 0 -1.375 0.59375q-0.609375 0.59375 -0.71875 1.671875z" fill-rule="nonzero"></path><path fill="#000000" fill-opacity="0.0" d="m269.00787 300.0l273.00787 0" fill-rule="nonzero"></path><path stroke="#000000" stroke-width="2.0" stroke-linejoin="round" stroke-linecap="butt" d="m269.00787 300.0l261.00787 0" fill-rule="evenodd"></path><path fill="#000000" stroke="#000000" stroke-width="2.0" stroke-linecap="butt" d="m530.01575 303.30347l9.076172 -3.3034668l-9.076172 -3.3034668z" fill-rule="evenodd"></path><path fill="#000000" fill-opacity="0.0" d="m341.25198 252.0l128.50394 0l0 48.0l-128.50394 0z" fill-rule="nonzero"></path><path fill="#000000" d="m363.60135 279.6856q-0.34375 1.6875 -1.34375 2.59375q-1.0 0.90625 -2.21875 0.90625q-1.453125 0 -2.53125 -1.21875q-1.0625 -1.21875 -1.0625 -3.28125q0 -2.015625 1.1875 -3.265625q1.1875 -1.25 2.859375 -1.25q1.25 0 2.0625 0.671875q0.8125 0.65625 0.8125 1.375q0 0.34375 -0.234375 0.5625q-0.234375 0.21875 -0.640625 0.21875q-0.546875 0 -0.828125 -0.34375q-0.15625 -0.203125 -0.203125 -0.75q-0.046875 -0.546875 -0.375 -0.828125q-0.328125 -0.28125 -0.90625 -0.28125q-0.921875 0 -1.484375 0.6875q-0.75 0.90625 -0.75 2.40625q0 1.515625 0.734375 2.6875q0.75 1.15625 2.03125 1.15625q0.90625 0 1.625 -0.625q0.515625 -0.421875 1.0 -1.546875l0.265625 0.125zm3.561798 -9.953125l0 6.203125q1.03125 -1.125 1.625 -1.4375q0.609375 -0.328125 1.203125 -0.328125q0.734375 0 1.25 0.40625q0.515625 0.390625 0.765625 1.25q0.1875 0.59375 0.1875 2.171875l0 3.0q0 0.8125 0.125 1.109375q0.09375 0.21875 0.3125 0.359375q0.21875 0.125 0.8125 0.125l0 0.328125l-4.171875 0l0 -0.328125l0.203125 0q0.59375 0 0.8125 -0.1875q0.234375 -0.1875 0.328125 -0.53125q0.03125 -0.15625 0.03125 -0.875l0 -3.0q0 -1.390625 -0.140625 -1.828125q-0.140625 -0.4375 -0.46875 -0.65625q-0.3125 -0.21875 -0.75 -0.21875q-0.453125 0 -0.953125 0.25q-0.484375 0.234375 -1.171875 0.96875l0 4.484375q0 0.875 0.09375 1.09375q0.09375 0.203125 0.359375 0.359375q0.265625 0.140625 0.921875 0.140625l0 0.328125l-4.21875 0l0 -0.328125q0.5625 0 0.890625 -0.1875q0.1875 -0.09375 0.296875 -0.34375q0.109375 -0.265625 0.109375 -1.0625l0 -7.6875q0 -1.453125 -0.078125 -1.78125q-0.0625 -0.34375 -0.203125 -0.46875q-0.140625 -0.125 -0.390625 -0.125q-0.1875 0 -0.625 0.15625l-0.125 -0.328125l2.53125 -1.03125l0.4375 0zm11.640625 11.96875q-1.3125 1.0 -1.640625 1.15625q-0.5 0.234375 -1.0625 0.234375q-0.890625 0 -1.46875 -0.59375q-0.5625 -0.609375 -0.5625 -1.59375q0 -0.625 0.28125 -1.078125q0.390625 -0.625 1.328125 -1.171875q0.9375 -0.5625 3.125 -1.359375l0 -0.34375q0 -1.265625 -0.40625 -1.734375q-0.390625 -0.484375 -1.171875 -0.484375q-0.578125 0 -0.921875 0.3125q-0.359375 0.328125 -0.359375 0.734375l0.015625 0.53125q0 0.4375 -0.21875 0.671875q-0.203125 0.21875 -0.5625 0.21875q-0.34375 0 -0.5625 -0.234375q-0.21875 -0.25 -0.21875 -0.65625q0 -0.796875 0.8125 -1.46875q0.828125 -0.671875 2.296875 -0.671875q1.125 0 1.859375 0.375q0.546875 0.296875 0.796875 0.90625q0.171875 0.40625 0.171875 1.640625l0 2.875q0 1.21875 0.046875 1.5q0.046875 0.265625 0.15625 0.359375q0.109375 0.09375 0.25 0.09375q0.140625 0 0.25 -0.0625q0.203125 -0.125 0.75 -0.6875l0 0.53125q-1.03125 1.390625 -1.984375 1.390625q-0.453125 0 -0.71875 -0.3125q-0.265625 -0.328125 -0.28125 -1.078125zm0 -0.609375l0 -3.234375q-1.390625 0.546875 -1.8125 0.78125q-0.734375 0.40625 -1.046875 0.859375q-0.3125 0.4375 -0.3125 0.96875q0 0.671875 0.390625 1.109375q0.40625 0.4375 0.921875 0.4375q0.71875 0 1.859375 -0.921875zm5.9523926 -6.921875l0 1.90625q1.0625 -1.90625 2.1875 -1.90625q0.515625 0 0.84375 0.3125q0.34375 0.3125 0.34375 0.71875q0 0.359375 -0.25 0.609375q-0.234375 0.25 -0.578125 0.25q-0.3125 0 -0.71875 -0.3125q-0.40625 -0.328125 -0.59375 -0.328125q-0.171875 0 -0.375 0.1875q-0.40625 0.375 -0.859375 1.25l0 4.078125q0 0.703125 0.171875 1.0625q0.125 0.25 0.421875 0.421875q0.3125 0.171875 0.890625 0.171875l0 0.328125l-4.34375 0l0 -0.328125q0.640625 0 0.953125 -0.203125q0.234375 -0.15625 0.328125 -0.484375q0.046875 -0.15625 0.046875 -0.890625l0 -3.296875q0 -1.484375 -0.0625 -1.765625q-0.0625 -0.28125 -0.21875 -0.40625q-0.15625 -0.140625 -0.40625 -0.140625q-0.28125 0 -0.640625 0.140625l-0.09375 -0.328125l2.5625 -1.046875l0.390625 0zm8.540802 7.53125q-1.3125 1.0 -1.640625 1.15625q-0.5 0.234375 -1.0625 0.234375q-0.890625 0 -1.46875 -0.59375q-0.5625 -0.609375 -0.5625 -1.59375q0 -0.625 0.28125 -1.078125q0.390625 -0.625 1.328125 -1.171875q0.9375 -0.5625 3.125 -1.359375l0 -0.34375q0 -1.265625 -0.40625 -1.734375q-0.390625 -0.484375 -1.171875 -0.484375q-0.578125 0 -0.921875 0.3125q-0.359375 0.328125 -0.359375 0.734375l0.015625 0.53125q0 0.4375 -0.21875 0.671875q-0.203125 0.21875 -0.5625 0.21875q-0.34375 0 -0.5625 -0.234375q-0.21875 -0.25 -0.21875 -0.65625q0 -0.796875 0.8125 -1.46875q0.828125 -0.671875 2.296875 -0.671875q1.125 0 1.859375 0.375q0.546875 0.296875 0.796875 0.90625q0.171875 0.40625 0.171875 1.640625l0 2.875q0 1.21875 0.046875 1.5q0.046875 0.265625 0.15625 0.359375q0.109375 0.09375 0.25 0.09375q0.140625 0 0.25 -0.0625q0.203125 -0.125 0.75 -0.6875l0 0.53125q-1.03125 1.390625 -1.984375 1.390625q-0.453125 0 -0.71875 -0.3125q-0.265625 -0.328125 -0.28125 -1.078125zm0 -0.609375l0 -3.234375q-1.390625 0.546875 -1.8125 0.78125q-0.734375 0.40625 -1.046875 0.859375q-0.3125 0.4375 -0.3125 0.96875q0 0.671875 0.390625 1.109375q0.40625 0.4375 0.921875 0.4375q0.71875 0 1.859375 -0.921875zm10.686798 -1.40625q-0.34375 1.6875 -1.34375 2.59375q-1.0 0.90625 -2.21875 0.90625q-1.453125 0 -2.53125 -1.21875q-1.0625 -1.21875 -1.0625 -3.28125q0 -2.015625 1.1875 -3.265625q1.1875 -1.25 2.859375 -1.25q1.25 0 2.0625 0.671875q0.8125 0.65625 0.8125 1.375q0 0.34375 -0.234375 0.5625q-0.234375 0.21875 -0.640625 0.21875q-0.546875 0 -0.828125 -0.34375q-0.15625 -0.203125 -0.203125 -0.75q-0.046875 -0.546875 -0.375 -0.828125q-0.328125 -0.28125 -0.90625 -0.28125q-0.921875 0 -1.484375 0.6875q-0.75 0.90625 -0.75 2.40625q0 1.515625 0.734375 2.6875q0.75 1.15625 2.03125 1.15625q0.90625 0 1.625 -0.625q0.515625 -0.421875 1.0 -1.546875l0.265625 0.125zm3.5305176 -8.0625l0 2.796875l1.984375 0l0 0.65625l-1.984375 0l0 5.5q0 0.828125 0.234375 1.125q0.234375 0.28125 0.609375 0.28125q0.3125 0 0.59375 -0.1875q0.28125 -0.1875 0.4375 -0.5625l0.375 0q-0.328125 0.90625 -0.921875 1.375q-0.59375 0.453125 -1.234375 0.453125q-0.421875 0 -0.828125 -0.234375q-0.40625 -0.234375 -0.609375 -0.671875q-0.1875 -0.453125 -0.1875 -1.375l0 -5.703125l-1.34375 0l0 -0.3125q0.515625 -0.203125 1.046875 -0.6875q0.53125 -0.484375 0.953125 -1.15625q0.203125 -0.359375 0.59375 -1.296875l0.28125 0zm4.136444 6.0q0 1.890625 0.921875 2.96875q0.9375 1.078125 2.1875 1.078125q0.828125 0 1.4375 -0.453125q0.625 -0.46875 1.046875 -1.578125l0.28125 0.1875q-0.1875 1.265625 -1.125 2.3125q-0.9375 1.046875 -2.34375 1.046875q-1.53125 0 -2.625 -1.1875q-1.09375 -1.203125 -1.09375 -3.21875q0 -2.171875 1.109375 -3.390625q1.125 -1.234375 2.8125 -1.234375q1.4375 0 2.34375 0.953125q0.921875 0.9375 0.921875 2.515625l-5.875 0zm0 -0.53125l3.9375 0q-0.046875 -0.828125 -0.1875 -1.15625q-0.234375 -0.515625 -0.703125 -0.8125q-0.453125 -0.296875 -0.953125 -0.296875q-0.765625 0 -1.375 0.59375q-0.609375 0.59375 -0.71875 1.671875zm9.343018 -2.921875l0 1.90625q1.0625 -1.90625 2.1875 -1.90625q0.515625 0 0.84375 0.3125q0.34375 0.3125 0.34375 0.71875q0 0.359375 -0.25 0.609375q-0.234375 0.25 -0.578125 0.25q-0.3125 0 -0.71875 -0.3125q-0.40625 -0.328125 -0.59375 -0.328125q-0.171875 0 -0.375 0.1875q-0.40625 0.375 -0.859375 1.25l0 4.078125q0 0.703125 0.171875 1.0625q0.125 0.25 0.421875 0.421875q0.3125 0.171875 0.890625 0.171875l0 0.328125l-4.34375 0l0 -0.328125q0.640625 0 0.953125 -0.203125q0.234375 -0.15625 0.328125 -0.484375q0.046875 -0.15625 0.046875 -0.890625l0 -3.296875q0 -1.484375 -0.0625 -1.765625q-0.0625 -0.28125 -0.21875 -0.40625q-0.15625 -0.140625 -0.40625 -0.140625q-0.28125 0 -0.640625 0.140625l-0.09375 -0.328125l2.5625 -1.046875l0.390625 0zm5.884552 -4.4375q0.390625 0 0.65625 0.28125q0.28125 0.265625 0.28125 0.65625q0 0.390625 -0.28125 0.671875q-0.265625 0.265625 -0.65625 0.265625q-0.390625 0 -0.671875 -0.265625q-0.265625 -0.28125 -0.265625 -0.671875q0 -0.390625 0.265625 -0.65625q0.28125 -0.28125 0.671875 -0.28125zm0.78125 4.4375l0 6.828125q0 0.796875 0.109375 1.0625q0.109375 0.265625 0.34375 0.40625q0.234375 0.125 0.828125 0.125l0 0.328125l-4.125 0l0 -0.328125q0.625 0 0.828125 -0.125q0.21875 -0.125 0.34375 -0.390625q0.125 -0.28125 0.125 -1.078125l0 -3.28125q0 -1.375 -0.078125 -1.78125q-0.0625 -0.296875 -0.203125 -0.40625q-0.140625 -0.125 -0.390625 -0.125q-0.25 0 -0.625 0.140625l-0.125 -0.328125l2.5625 -1.046875l0.40625 0zm7.745819 0l0 2.890625l-0.3125 0q-0.359375 -1.359375 -0.90625 -1.84375q-0.546875 -0.5 -1.40625 -0.5q-0.640625 0 -1.046875 0.34375q-0.40625 0.34375 -0.40625 0.765625q0 0.515625 0.296875 0.890625q0.296875 0.375 1.171875 0.796875l1.359375 0.671875q1.875 0.90625 1.875 2.421875q0 1.15625 -0.875 1.875q-0.875 0.703125 -1.953125 0.703125q-0.78125 0 -1.78125 -0.28125q-0.3125 -0.09375 -0.5 -0.09375q-0.21875 0 -0.34375 0.234375l-0.296875 0l0 -3.03125l0.296875 0q0.265625 1.296875 1.0 1.96875q0.734375 0.65625 1.640625 0.65625q0.640625 0 1.046875 -0.375q0.40625 -0.390625 0.40625 -0.90625q0 -0.640625 -0.453125 -1.078125q-0.453125 -0.4375 -1.796875 -1.109375q-1.34375 -0.671875 -1.765625 -1.203125q-0.421875 -0.53125 -0.421875 -1.34375q0 -1.046875 0.71875 -1.75q0.71875 -0.703125 1.859375 -0.703125q0.515625 0 1.21875 0.21875q0.484375 0.140625 0.640625 0.140625q0.140625 0 0.21875 -0.0625q0.09375 -0.078125 0.203125 -0.296875l0.3125 0zm4.229004 -2.546875l0 2.796875l1.984375 0l0 0.65625l-1.984375 0l0 5.5q0 0.828125 0.234375 1.125q0.234375 0.28125 0.609375 0.28125q0.3125 0 0.59375 -0.1875q0.28125 -0.1875 0.4375 -0.5625l0.375 0q-0.328125 0.90625 -0.921875 1.375q-0.59375 0.453125 -1.234375 0.453125q-0.421875 0 -0.828125 -0.234375q-0.40625 -0.234375 -0.609375 -0.671875q-0.1875 -0.453125 -0.1875 -1.375l0 -5.703125l-1.34375 0l0 -0.3125q0.515625 -0.203125 1.046875 -0.6875q0.53125 -0.484375 0.953125 -1.15625q0.203125 -0.359375 0.59375 -1.296875l0.28125 0zm4.870819 -1.890625q0.390625 0 0.65625 0.28125q0.28125 0.265625 0.28125 0.65625q0 0.390625 -0.28125 0.671875q-0.265625 0.265625 -0.65625 0.265625q-0.390625 0 -0.671875 -0.265625q-0.265625 -0.28125 -0.265625 -0.671875q0 -0.390625 0.265625 -0.65625q0.28125 -0.28125 0.671875 -0.28125zm0.78125 4.4375l0 6.828125q0 0.796875 0.109375 1.0625q0.109375 0.265625 0.34375 0.40625q0.234375 0.125 0.828125 0.125l0 0.328125l-4.125 0l0 -0.328125q0.625 0 0.828125 -0.125q0.21875 -0.125 0.34375 -0.390625q0.125 -0.28125 0.125 -1.078125l0 -3.28125q0 -1.375 -0.078125 -1.78125q-0.0625 -0.296875 -0.203125 -0.40625q-0.140625 -0.125 -0.390625 -0.125q-0.25 0 -0.625 0.140625l-0.125 -0.328125l2.5625 -1.046875l0.40625 0zm9.464539 5.515625q-0.34375 1.6875 -1.34375 2.59375q-1.0 0.90625 -2.21875 0.90625q-1.453125 0 -2.53125 -1.21875q-1.0625 -1.21875 -1.0625 -3.28125q0 -2.015625 1.1875 -3.265625q1.1875 -1.25 2.859375 -1.25q1.25 0 2.0625 0.671875q0.8125 0.65625 0.8125 1.375q0 0.34375 -0.234375 0.5625q-0.234375 0.21875 -0.640625 0.21875q-0.546875 0 -0.828125 -0.34375q-0.15625 -0.203125 -0.203125 -0.75q-0.046875 -0.546875 -0.375 -0.828125q-0.328125 -0.28125 -0.90625 -0.28125q-0.921875 0 -1.484375 0.6875q-0.75 0.90625 -0.75 2.40625q0 1.515625 0.734375 2.6875q0.75 1.15625 2.03125 1.15625q0.90625 0 1.625 -0.625q0.515625 -0.421875 1.0 -1.546875l0.265625 0.125z" fill-rule="nonzero"></path></g></svg>

